<?xml version="1.0" encoding="iso-8859-1"?>
<!-- Generator: Adobe Illustrator 19.0.0, SVG Export Plug-In . SVG Version: 6.00 Build 0)  -->
<svg version="1.1" id="Capa_1" xmlns="http://www.w3.org/2000/svg" xmlns:xlink="http://www.w3.org/1999/xlink" x="0px" y="0px"
	 viewBox="0 0 512 512" style="enable-background:new 0 0 512 512;" xml:space="preserve">
<g>
	<g>
		<path d="M227.07,244.562c-3.906-3.905-10.236-3.905-14.142,0l-58.925,58.926c-3.905,3.905-3.905,10.237,0,14.143
			c1.953,1.952,4.512,2.929,7.071,2.929c2.559,0,5.118-0.977,7.071-2.929l58.925-58.926
			C230.975,254.8,230.975,248.468,227.07,244.562z"/>
	</g>
</g>
<g>
	<g>
		<path d="M141.269,330.36c-1.859-1.86-4.439-2.93-7.069-2.93c-2.631,0-5.2,1.07-7.07,2.93c-1.86,1.86-2.93,4.44-2.93,7.07
			s1.069,5.21,2.93,7.07c1.87,1.859,4.439,2.93,7.07,2.93c2.63,0,5.21-1.07,7.069-2.93c1.87-1.86,2.931-4.44,2.931-7.07
			S143.139,332.22,141.269,330.36z"/>
	</g>
</g>
<g>
	<g>
		<path d="M509.072,112.717L399.283,2.929C397.407,1.054,394.865,0,392.212,0c-2.653,0-5.196,1.054-7.071,2.929l-35.105,35.106
			c-3.905,3.905-3.905,10.237,0,14.143l16.654,16.654l-33.924,33.924l-18.57-18.57c-13.07-13.07-34.339-13.07-47.411,0
			c-13.016,13.016-13.067,34.156-0.162,47.241L53.918,344.132c-1.875,1.876-2.929,4.419-2.929,7.071v95.665l-48.06,48.061
			c-3.905,3.905-3.905,10.237,0,14.143C4.882,511.024,7.441,512,10,512s5.118-0.977,7.071-2.929l48.061-48.061h95.665
			c2.652,0,5.195-1.054,7.071-2.929l212.704-212.704c6.515,6.424,15.023,9.641,23.535,9.641c8.585,0,17.171-3.268,23.706-9.804
			c13.07-13.071,13.07-34.339,0-47.411l-18.569-18.569l33.924-33.924l16.654,16.654c1.953,1.952,4.512,2.929,7.071,2.929
			s5.118-0.977,7.071-2.929l35.106-35.105c1.875-1.875,2.929-4.419,2.929-7.071C511.999,117.136,510.947,114.593,509.072,112.717z
			 M340.646,257.02l-22.871-22.871c-3.906-3.904-10.236-3.904-14.143,0c-3.905,3.905-3.905,10.237,0,14.143l22.871,22.871
			l-25.78,25.78l-22.871-22.871c-3.906-3.904-10.236-3.904-14.143,0c-3.905,3.905-3.905,10.237,0,14.143l22.871,22.871l-25.78,25.78
			l-22.871-22.871c-3.906-3.904-10.236-3.904-14.143,0c-3.905,3.905-3.905,10.237,0,14.143l22.871,22.871l-25.78,25.78
			l-22.871-22.871c-3.906-3.904-10.236-3.904-14.143,0c-3.905,3.905-3.905,10.237,0,14.143l22.871,22.871l-25.78,25.78
			l-22.872-22.871c-3.906-3.904-10.236-3.904-14.143,0c-3.905,3.905-3.905,10.237,0,14.143l22.872,22.871l-10.158,10.158H70.99
			v-85.665l209.771-209.771l85.665,85.665L340.646,257.02z M413.67,211.945c5.274,5.275,5.274,13.855,0.001,19.128
			c-5.274,5.274-13.854,5.272-19.126,0L280.927,117.455c-5.273-5.273-5.273-13.854-0.001-19.126
			c2.638-2.637,6.101-3.955,9.564-3.955c3.463,0,6.928,1.318,9.563,3.955L413.67,211.945z M395.102,165.092l-48.193-48.193
			l33.924-33.924l48.193,48.193L395.102,165.092z M466.894,140.752l-16.645-16.645c-0.003-0.003-0.006-0.007-0.009-0.01
			l-62.336-62.336c-0.003-0.003-0.007-0.006-0.01-0.009l-16.645-16.645l20.964-20.964l95.646,95.646L466.894,140.752z"/>
	</g>
</g>
<g>
</g>
<g>
</g>
<g>
</g>
<g>
</g>
<g>
</g>
<g>
</g>
<g>
</g>
<g>
</g>
<g>
</g>
<g>
</g>
<g>
</g>
<g>
</g>
<g>
</g>
<g>
</g>
<g>
</g>
</svg>
